<svg width="1280" height="720" xmlns="http://www.w3.org/2000/svg" xmlns:xlink="http://www.w3.org/1999/xlink" overflow="hidden"><defs><clipPath id="clip0"><rect x="0" y="0" width="1280" height="720"/></clipPath><clipPath id="clip1"><rect x="93" y="144" width="1121" height="431"/></clipPath><clipPath id="clip2"><rect x="93" y="144" width="1121" height="431"/></clipPath><clipPath id="clip3"><rect x="102" y="153" width="1105" height="413"/></clipPath><clipPath id="clip4"><rect x="102" y="153" width="1105" height="413"/></clipPath><clipPath id="clip5"><rect x="102" y="153" width="1105" height="413"/></clipPath><clipPath id="clip6"><rect x="102" y="153" width="1105" height="413"/></clipPath><clipPath id="clip7"><rect x="102" y="153" width="1105" height="413"/></clipPath><clipPath id="clip8"><rect x="102" y="153" width="1105" height="413"/></clipPath><clipPath id="clip9"><rect x="102" y="153" width="1105" height="413"/></clipPath><clipPath id="clip10"><rect x="102" y="153" width="1105" height="413"/></clipPath><clipPath id="clip11"><rect x="102" y="153" width="1105" height="413"/></clipPath><clipPath id="clip12"><rect x="102" y="153" width="1105" height="413"/></clipPath></defs><g clip-path="url(#clip0)"><rect x="0" y="0" width="1280" height="720" fill="#FFFFFF"/><path d="M921 65.5C921 58.0442 927.044 52 934.5 52 941.956 52 948 58.0442 948 65.5 948 72.9558 941.956 79 934.5 79 927.044 79 921 72.9558 921 65.5Z" stroke="#000000" stroke-width="2" stroke-linejoin="round" stroke-miterlimit="10" fill="none" fill-rule="evenodd"/><path d="M935 52.5001C942.456 52.5001 948.5 58.5442 948.5 66.0001 948.5 73.4559 942.456 79.5001 935 79.5001 927.544 79.5001 921.5 73.4559 921.5 66.0001 921.5 58.5442 927.544 52.5001 935 52.5001" stroke="#000000" stroke-linejoin="round" stroke-miterlimit="10" fill="none" fill-rule="evenodd"/><text font-family="Arial,Arial_MSFontService,sans-serif" font-weight="400" font-size="16" transform="translate(957.869 72)">Size: # of residents within community</text><path d="M0 0 0.000104987 6.16672" stroke="#000000" stroke-miterlimit="8" fill="none" fill-rule="evenodd" transform="matrix(1 0 0 -1 102.5 566.667)"/><path d="M0 0 0.000104987 6.16672" stroke="#000000" stroke-miterlimit="8" fill="none" fill-rule="evenodd" transform="matrix(1 0 0 -1 889.5 566.667)"/><path d="M102.5 503.5 108.667 503.5" stroke="#000000" stroke-linejoin="round" stroke-miterlimit="10" fill="none" fill-rule="evenodd"/><path d="M0 0 0.000104987 6.16672" stroke="#000000" stroke-miterlimit="8" fill="none" fill-rule="evenodd" transform="matrix(1 0 0 -1 1100.5 566.667)"/><path d="M0 0 0.000104987 6.16672" stroke="#000000" stroke-miterlimit="8" fill="none" fill-rule="evenodd" transform="matrix(1 0 0 -1 679.5 566.667)"/><path d="M102.5 440.5 108.667 440.5" stroke="#000000" stroke-linejoin="round" stroke-miterlimit="10" fill="none" fill-rule="evenodd"/><path d="M102.5 209.5 108.667 209.5" stroke="#000000" stroke-linejoin="round" stroke-miterlimit="10" fill="none" fill-rule="evenodd"/><path d="M0 0 0.000104987 6.16672" stroke="#000000" stroke-miterlimit="8" fill="none" fill-rule="evenodd" transform="matrix(1 0 0 -1 784.5 566.667)"/><path d="M0 0 0.000104987 6.16672" stroke="#000000" stroke-miterlimit="8" fill="none" fill-rule="evenodd" transform="matrix(1 0 0 -1 468.5 566.667)"/><path d="M102.5 377.5 108.667 377.5" stroke="#000000" stroke-linejoin="round" stroke-miterlimit="10" fill="none" fill-rule="evenodd"/><path d="M0 0 0.000104987 6.16672" stroke="#000000" stroke-miterlimit="8" fill="none" fill-rule="evenodd" transform="matrix(1 0 0 -1 994.5 566.667)"/><path d="M0 0 0.000104987 6.16672" stroke="#000000" stroke-miterlimit="8" fill="none" fill-rule="evenodd" transform="matrix(1 0 0 -1 207.5 566.667)"/><path d="M0 0 0.000104987 6.16672" stroke="#000000" stroke-miterlimit="8" fill="none" fill-rule="evenodd" transform="matrix(1 0 0 -1 1206.5 566.667)"/><path d="M0 0 0.000104987 6.16672" stroke="#000000" stroke-miterlimit="8" fill="none" fill-rule="evenodd" transform="matrix(1 0 0 -1 574.5 566.667)"/><path d="M0 0 0.000104987 6.16672" stroke="#000000" stroke-miterlimit="8" fill="none" fill-rule="evenodd" transform="matrix(1 0 0 -1 363.5 566.667)"/><path d="M102.5 314.5 108.667 314.5" stroke="#000000" stroke-linejoin="round" stroke-miterlimit="10" fill="none" fill-rule="evenodd"/><path d="M102.5 566.5 108.667 566.5" stroke="#000000" stroke-linejoin="round" stroke-miterlimit="10" fill="none" fill-rule="evenodd"/><path d="M102.5 153.5 108.667 153.5" stroke="#000000" stroke-linejoin="round" stroke-miterlimit="10" fill="none" fill-rule="evenodd"/><path d="M102.5 272.5 108.667 272.5" stroke="#000000" stroke-linejoin="round" stroke-miterlimit="10" fill="none" fill-rule="evenodd"/><g clip-path="url(#clip1)"><path d="M0 0 0.000104987 412" stroke="#000000" stroke-linejoin="round" stroke-miterlimit="10" fill="none" fill-rule="evenodd" transform="matrix(1 0 0 -1 102.5 565.5)"/></g><g clip-path="url(#clip2)"><path d="M102.5 565.5 1206.5 565.5" stroke="#000000" stroke-linejoin="round" stroke-miterlimit="10" fill="none" fill-rule="evenodd"/></g><g clip-path="url(#clip3)"><path d="M478.5 376.5C478.5 351.647 498.647 331.5 523.5 331.5 548.353 331.5 568.5 351.647 568.5 376.5 568.5 401.353 548.353 421.5 523.5 421.5 498.647 421.5 478.5 401.353 478.5 376.5Z" fill="#051C2C" fill-rule="evenodd"/><path d="M478.5 376.5 478.75 371.875 479.438 367.438 480.5 363.125 482.063 359 483.938 355.063 486.188 351.375 491.688 344.688 498.375 339.188 502.063 336.938 506 335.063 510.125 333.5 514.438 332.438 518.875 331.75 523.5 331.5 528.125 331.75 532.563 332.438 536.875 333.5 541 335.063 544.938 336.938 548.688 339.188 555.313 344.688 560.813 351.375 563.063 355.063 564.938 359 566.5 363.125 567.563 367.438 568.25 371.875 568.5 376.5 568.25 381.125 567.563 385.563 566.5 389.875 564.938 394 563.063 397.938 560.813 401.688 555.313 408.313 548.688 413.813 544.938 416.063 541 417.938 536.875 419.5 532.563 420.563 528.125 421.25 523.5 421.5 518.875 421.25 514.438 420.563 510.125 419.5 506 417.938 502.063 416.063 498.375 413.813 491.688 408.313 486.188 401.688 483.938 397.938 482.063 394 480.5 389.875 479.438 385.563 478.75 381.125ZM479.738 380.972 480.409 385.323 481.435 389.521 482.965 393.57 484.795 397.423 487.006 401.108 492.396 407.601 498.896 412.959 502.492 415.16 506.354 417.002 510.364 418.529 514.591 419.574 518.929 420.252 523.446 420.502 527.972 420.262 532.323 419.592 536.521 418.565 540.57 417.035 544.423 415.205 548.108 412.994 554.602 407.602 559.994 401.108 562.16 397.508 564.002 393.646 565.529 389.636 566.574 385.409 567.252 381.071 567.502 376.554 567.262 372.028 566.592 367.677 565.565 363.479 564.035 359.43 562.209 355.583 560.04 352.01 554.601 345.396 548.108 340.006 544.508 337.84 540.646 335.998 536.636 334.471 532.409 333.426 528.071 332.749 523.554 332.499 519.028 332.738 514.677 333.409 510.479 334.435 506.43 335.965 502.583 337.791 499.01 339.96 492.398 345.398 487.041 351.896 484.84 355.492 482.998 359.354 481.471 363.364 480.426 367.591 479.749 371.929 479.499 376.446Z" fill="#FFFFFF"/></g><g clip-path="url(#clip4)"><path d="M283.5 418.5C283.5 380.392 314.392 349.5 352.5 349.5 390.608 349.5 421.5 380.392 421.5 418.5 421.5 456.608 390.608 487.5 352.5 487.5 314.392 487.5 283.5 456.608 283.5 418.5Z" fill="#051C2C" fill-rule="evenodd"/><path d="M283.5 418.5 283.875 411.438 284.875 404.625 286.625 398 288.938 391.688 291.813 385.625 295.313 379.938 299.25 374.625 303.75 369.75 308.625 365.25 313.938 361.313 319.625 357.813 325.688 354.938 332 352.625 338.625 350.875 345.438 349.875 352.5 349.5 359.563 349.875 366.438 350.875 373 352.625 379.375 354.938 385.375 357.813 391.063 361.313 396.375 365.25 401.313 369.75 405.75 374.625 409.75 379.938 413.188 385.625 416.063 391.688 418.375 398 420.125 404.625 421.125 411.438 421.5 418.5 421.125 425.563 420.125 432.438 418.375 439 416.063 445.375 413.188 451.375 409.75 457.063 405.75 462.375 401.313 467.313 396.375 471.75 391.063 475.75 385.375 479.188 379.375 482.063 373 484.375 366.438 486.125 359.563 487.125 352.5 487.5 345.438 487.125 338.625 486.125 332 484.375 325.688 482.063 319.625 479.188 313.938 475.75 308.625 471.75 303.75 467.313 299.25 462.375 295.313 457.063 291.813 451.375 288.938 445.375 286.625 439 284.875 432.438 283.875 425.563ZM284.865 425.419 285.841 432.18 287.565 438.659 289.839 444.943 292.664 450.851 296.116 456.467 299.989 461.701 304.423 466.573 309.227 470.951 314.455 474.894 320.054 478.284 326.032 481.124 332.255 483.408 338.77 485.136 345.491 486.126 352.447 486.501 359.419 486.135 366.18 485.159 372.659 483.435 378.943 481.161 384.858 478.332 390.461 474.951 395.707 471.006 400.569 466.644 404.951 461.774 408.894 456.545 412.286 450.943 415.122 445.034 417.409 438.742 419.135 432.294 420.126 425.51 420.501 418.553 420.136 411.583 419.158 404.88 417.436 398.344 415.159 392.116 412.332 386.142 408.951 380.539 405.011 375.298 400.639 370.489 395.78 366.053 390.538 362.164 384.943 358.714 379.034 355.878 372.742 353.591 366.294 351.865 359.51 350.874 352.553 350.499 345.583 350.864 338.88 351.842 332.344 353.564 326.116 355.841 320.149 358.664 314.533 362.116 309.303 365.985 304.485 370.428 300.053 375.221 296.164 380.462 292.716 386.054 289.877 392.032 287.592 398.255 285.864 404.77 284.874 411.491 284.499 418.447Z" fill="#FFFFFF"/></g><g clip-path="url(#clip5)"><path d="M675.5 418.5C675.5 408.007 684.007 399.5 694.5 399.5 704.993 399.5 713.5 408.007 713.5 418.5 713.5 428.993 704.993 437.5 694.5 437.5 684.007 437.5 675.5 428.993 675.5 418.5Z" fill="#051C2C" fill-rule="evenodd"/><path d="M675.5 418.5 675.875 414.688 677 411.125 678.75 407.875 681.063 405.063 683.875 402.75 687.125 401 690.688 399.875 694.5 399.5 698.313 399.875 701.875 401 705.125 402.75 707.938 405.063 710.25 407.875 712 411.125 713.125 414.688 713.5 418.5 713.125 422.313 712 425.875 710.25 429.125 707.938 431.938 705.125 434.25 701.875 436 698.313 437.125 694.5 437.5 690.688 437.125 687.125 436 683.875 434.25 681.063 431.938 678.75 429.125 677 425.875 675.875 422.313ZM676.86 422.111 677.925 425.484 679.584 428.565 681.773 431.227 684.435 433.416 687.516 435.075 690.889 436.14 694.5 436.495 698.111 436.14 701.484 435.075 704.565 433.416 707.227 431.227 709.416 428.565 711.075 425.484 712.14 422.111 712.495 418.5 712.14 414.889 711.075 411.516 709.416 408.435 707.227 405.773 704.565 403.584 701.484 401.925 698.111 400.86 694.5 400.505 690.889 400.86 687.516 401.925 684.435 403.584 681.773 405.773 679.584 408.435 677.925 411.516 676.86 414.889 676.505 418.5Z" fill="#FFFFFF"/></g><g clip-path="url(#clip6)"><path d="M1078.5 376.5C1078.5 351.647 1098.65 331.5 1123.5 331.5 1148.35 331.5 1168.5 351.647 1168.5 376.5 1168.5 401.353 1148.35 421.5 1123.5 421.5 1098.65 421.5 1078.5 401.353 1078.5 376.5Z" fill="#051C2C" fill-rule="evenodd"/><path d="M1078.5 376.5 1078.75 371.875 1079.44 367.438 1080.5 363.125 1082.06 359 1083.94 355.063 1086.19 351.375 1091.69 344.688 1098.38 339.188 1102.06 336.938 1106 335.063 1110.13 333.5 1114.44 332.438 1118.88 331.75 1123.5 331.5 1128.13 331.75 1132.56 332.438 1136.88 333.5 1141 335.063 1144.94 336.938 1148.69 339.188 1155.31 344.688 1160.81 351.375 1163.06 355.063 1164.94 359 1166.5 363.125 1167.56 367.438 1168.25 371.875 1168.5 376.5 1168.25 381.125 1167.56 385.563 1166.5 389.875 1164.94 394 1163.06 397.938 1160.81 401.688 1155.31 408.313 1148.69 413.813 1144.94 416.063 1141 417.938 1136.88 419.5 1132.56 420.563 1128.13 421.25 1123.5 421.5 1118.88 421.25 1114.44 420.563 1110.13 419.5 1106 417.938 1102.06 416.063 1098.38 413.813 1091.69 408.313 1086.19 401.688 1083.94 397.938 1082.06 394 1080.5 389.875 1079.44 385.563 1078.75 381.125ZM1079.74 380.972 1080.41 385.323 1081.44 389.521 1082.97 393.57 1084.8 397.423 1087.01 401.108 1092.4 407.601 1098.9 412.959 1102.49 415.16 1106.35 417.002 1110.36 418.529 1114.59 419.574 1118.93 420.252 1123.45 420.502 1127.97 420.262 1132.32 419.592 1136.52 418.565 1140.57 417.035 1144.42 415.205 1148.11 412.994 1154.6 407.602 1159.99 401.108 1162.16 397.508 1164 393.646 1165.53 389.636 1166.57 385.409 1167.25 381.071 1167.5 376.554 1167.26 372.028 1166.59 367.677 1165.56 363.479 1164.03 359.43 1162.21 355.583 1160.04 352.01 1154.6 345.396 1148.11 340.006 1144.51 337.84 1140.65 335.998 1136.64 334.471 1132.41 333.426 1128.07 332.749 1123.55 332.499 1119.03 332.738 1114.68 333.409 1110.48 334.435 1106.43 335.965 1102.58 337.791 1099.01 339.96 1092.4 345.398 1087.04 351.896 1084.84 355.492 1083 359.354 1081.47 363.364 1080.43 367.591 1079.75 371.929 1079.5 376.446Z" fill="#FFFFFF"/></g><g clip-path="url(#clip7)"><path d="M844.5 376.5C844.5 346.677 868.677 322.5 898.5 322.5 928.323 322.5 952.5 346.677 952.5 376.5 952.5 406.323 928.323 430.5 898.5 430.5 868.677 430.5 844.5 406.323 844.5 376.5Z" fill="#051C2C" fill-rule="evenodd"/><path d="M844.5 376.5 844.75 371 845.625 365.625 846.938 360.438 848.75 355.5 851 350.75 853.75 346.313 856.813 342.125 860.313 338.313 864.125 334.813 868.313 331.75 872.75 329 877.5 326.75 882.438 324.938 887.625 323.625 893 322.75 898.5 322.5 904 322.75 909.375 323.625 914.563 324.938 919.563 326.75 924.25 329 928.688 331.75 932.875 334.813 936.688 338.313 940.188 342.125 943.313 346.313 946 350.75 948.25 355.5 950.063 360.438 951.375 365.625 952.25 371 952.5 376.5 952.25 382 951.375 387.375 950.063 392.563 948.25 397.563 946 402.25 943.313 406.688 940.188 410.875 936.688 414.688 932.875 418.188 928.688 421.313 924.25 424 919.563 426.25 914.563 428.063 909.375 429.375 904 430.25 898.5 430.5 893 430.25 887.625 429.375 882.438 428.063 877.5 426.25 872.75 424 868.313 421.313 864.125 418.188 860.313 414.688 856.813 410.875 853.75 406.688 851 402.25 848.75 397.563 846.938 392.563 845.625 387.375 844.75 382ZM845.737 381.839 846.594 387.13 847.878 392.222 849.652 397.13 851.85 401.723 854.557 406.097 857.549 410.199 860.989 413.951 864.723 417.386 868.831 420.457 873.178 423.096 877.845 425.311 882.683 427.093 887.786 428.388 893.045 429.251 898.455 429.501 903.839 429.263 909.13 428.406 914.222 427.122 919.13 425.349 923.732 423.145 928.089 420.511 932.199 417.451 935.951 414.011 939.386 410.277 942.457 406.17 945.099 401.817 947.31 397.222 949.093 392.317 950.388 387.214 951.251 381.955 951.501 376.545 951.263 371.161 950.406 365.87 949.124 360.782 947.346 355.928 945.145 351.268 942.511 346.911 939.451 342.801 936.011 339.049 932.285 335.62 928.161 332.6 923.817 329.902 919.222 327.69 914.317 325.907 909.214 324.612 903.955 323.749 898.545 323.499 893.161 323.737 887.87 324.595 882.782 325.876 877.928 327.654 873.277 329.85 868.903 332.557 864.801 335.549 861.049 338.989 857.62 342.715 854.6 346.839 851.904 351.178 849.689 355.845 847.907 360.683 846.612 365.786 845.749 371.045 845.499 376.455Z" fill="#FFFFFF"/></g><g clip-path="url(#clip8)"><path d="M553.5 174.5C553.5 163.454 562.454 154.5 573.5 154.5 584.546 154.5 593.5 163.454 593.5 174.5 593.5 185.546 584.546 194.5 573.5 194.5 562.454 194.5 553.5 185.546 553.5 174.5Z" fill="#051C2C" fill-rule="evenodd"/><path d="M553.5 174.5 553.938 170.5 555.063 166.75 556.938 163.313 559.375 160.375 562.313 157.938 565.75 156.063 569.5 154.938 573.5 154.5 577.563 154.938 581.313 156.063 584.688 157.938 587.625 160.375 590.063 163.313 591.938 166.75 593.125 170.5 593.5 174.5 593.125 178.563 591.938 182.313 590.063 185.688 587.625 188.625 584.688 191.063 581.313 192.938 577.563 194.125 573.5 194.5 569.5 194.125 565.75 192.938 562.313 191.063 559.375 188.625 556.938 185.688 555.063 182.313 553.938 178.563ZM554.922 178.364 555.989 181.922 557.767 185.121 560.085 187.915 562.877 190.231 566.144 192.013 569.7 193.139 573.501 193.496 577.363 193.139 580.915 192.015 584.121 190.234 586.915 187.915 589.234 185.121 591.015 181.915 592.139 178.363 592.496 174.501 592.139 170.7 591.013 167.144 589.231 163.877 586.915 161.085 584.121 158.767 580.922 156.989 577.364 155.922 573.501 155.506 569.7 155.922 566.137 156.99 562.877 158.769 560.085 161.085 557.769 163.877 555.99 167.137 554.922 170.7 554.506 174.501Z" fill="#FFFFFF"/></g><g clip-path="url(#clip9)"><path d="M439.5 188C439.5 172.26 452.26 159.5 468 159.5 483.74 159.5 496.5 172.26 496.5 188 496.5 203.74 483.74 216.5 468 216.5 452.26 216.5 439.5 203.74 439.5 188Z" fill="#051C2C" fill-rule="evenodd"/><path d="M439.5 188 440.063 182.25 441.75 176.938 444.375 172.063 447.875 167.875 452.063 164.375 456.938 161.75 462.25 160.063 468 159.5 473.75 160.063 479.125 161.75 483.938 164.375 488.188 167.875 491.625 172.063 494.25 176.938 495.938 182.25 496.5 188 495.938 193.75 494.25 199.125 491.625 203.938 488.188 208.188 483.938 211.625 479.125 214.25 473.75 215.938 468 216.5 462.25 215.938 456.938 214.25 452.063 211.625 447.875 208.188 444.375 203.938 441.75 199.125 440.063 193.75ZM441.048 193.549 442.675 198.732 445.207 203.375 448.585 207.477 452.622 210.791 457.329 213.325 462.452 214.953 468 215.495 473.549 214.952 478.732 213.325 483.379 210.791 487.477 207.477 490.791 203.379 493.325 198.732 494.952 193.549 495.495 188 494.953 182.452 493.325 177.329 490.791 172.622 487.477 168.585 483.375 165.207 478.732 162.675 473.549 161.048 468 160.505 462.452 161.048 457.329 162.675 452.626 165.207 448.585 168.585 445.207 172.626 442.675 177.329 441.048 182.452 440.505 188Z" fill="#FFFFFF"/></g><g clip-path="url(#clip10)"><path d="M1108.5 461C1108.5 443.051 1123.05 428.5 1141 428.5 1158.95 428.5 1173.5 443.051 1173.5 461 1173.5 478.949 1158.95 493.5 1141 493.5 1123.05 493.5 1108.5 478.949 1108.5 461Z" fill="#051C2C" fill-rule="evenodd"/><path d="M1108.5 461 1109.19 454.438 1111.06 448.375 1114.06 442.813 1118 438 1122.81 434.063 1128.38 431.063 1134.44 429.188 1141 428.5 1147.56 429.188 1153.69 431.063 1159.19 434.063 1164 438 1167.94 442.813 1170.94 448.375 1172.81 454.438 1173.5 461 1172.81 467.563 1170.94 473.688 1167.94 479.188 1164 484 1159.19 487.938 1153.69 490.938 1147.56 492.813 1141 493.5 1134.44 492.813 1128.38 490.938 1122.81 487.938 1118 484 1114.06 479.188 1111.06 473.688 1109.19 467.563ZM1110.17 467.362 1111.99 473.298 1114.9 478.627 1118.71 483.289 1123.37 487.103 1128.76 490.011 1134.64 491.828 1141 492.495 1147.36 491.828 1153.3 490.011 1158.63 487.104 1163.29 483.289 1167.1 478.627 1170.01 473.298 1171.83 467.362 1172.49 461 1171.83 454.639 1170.01 448.764 1167.1 443.372 1163.29 438.711 1158.63 434.896 1153.3 431.989 1147.36 430.172 1141 429.506 1134.64 430.172 1128.76 431.989 1123.37 434.897 1118.71 438.711 1114.9 443.372 1111.99 448.764 1110.17 454.639 1109.51 461Z" fill="#FFFFFF"/></g><g clip-path="url(#clip11)"><path d="M99.5001 502.5C99.5001 472.677 123.677 448.5 153.5 448.5 183.323 448.5 207.5 472.677 207.5 502.5 207.5 532.323 183.323 556.5 153.5 556.5 123.677 556.5 99.5001 532.323 99.5001 502.5Z" fill="#051C2C" fill-rule="evenodd"/><path d="M99.5001 502.5 99.7501 497 100.625 491.625 101.938 486.438 103.75 481.5 106 476.75 108.75 472.313 111.813 468.125 115.313 464.313 119.125 460.813 123.313 457.75 127.75 455 132.5 452.75 137.438 450.938 142.625 449.625 148 448.75 153.5 448.5 159 448.75 164.375 449.625 169.563 450.938 174.563 452.75 179.25 455 183.688 457.75 187.875 460.813 191.688 464.313 195.188 468.125 198.313 472.313 201 476.75 203.25 481.5 205.063 486.438 206.375 491.625 207.25 497 207.5 502.5 207.25 508 206.375 513.375 205.063 518.563 203.25 523.563 201 528.25 198.313 532.688 195.188 536.875 191.688 540.688 187.875 544.188 183.688 547.313 179.25 550 174.563 552.25 169.563 554.063 164.375 555.375 159 556.25 153.5 556.5 148 556.25 142.625 555.375 137.438 554.063 132.5 552.25 127.75 550 123.313 547.313 119.125 544.188 115.313 540.688 111.813 536.875 108.75 532.688 106 528.25 103.75 523.563 101.938 518.563 100.625 513.375 99.7501 508ZM100.737 507.839 101.595 513.13 102.878 518.222 104.652 523.13 106.85 527.723 109.557 532.097 112.549 536.199 115.989 539.951 119.723 543.386 123.831 546.457 128.178 549.096 132.845 551.311 137.683 553.093 142.786 554.388 148.045 555.251 153.455 555.501 158.839 555.263 164.13 554.406 169.222 553.122 174.13 551.349 178.732 549.145 183.089 546.511 187.199 543.451 190.951 540.011 194.386 536.277 197.457 532.17 200.099 527.817 202.31 523.222 204.093 518.317 205.388 513.214 206.251 507.955 206.501 502.545 206.263 497.161 205.406 491.87 204.124 486.782 202.346 481.928 200.145 477.268 197.511 472.911 194.451 468.801 191.011 465.049 187.285 461.62 183.161 458.6 178.817 455.902 174.222 453.69 169.317 451.907 164.214 450.612 158.955 449.749 153.545 449.499 148.161 449.737 142.87 450.595 137.782 451.876 132.928 453.654 128.277 455.85 123.903 458.557 119.801 461.549 116.049 464.989 112.62 468.715 109.6 472.839 106.904 477.178 104.689 481.845 102.907 486.683 101.612 491.786 100.749 497.045 100.499 502.455Z" fill="#FFFFFF"/></g><g clip-path="url(#clip12)"><path d="M115.5 523.5C115.5 512.454 124.454 503.5 135.5 503.5 146.546 503.5 155.5 512.454 155.5 523.5 155.5 534.546 146.546 543.5 135.5 543.5 124.454 543.5 115.5 534.546 115.5 523.5Z" fill="#051C2C" fill-rule="evenodd"/><path d="M115.5 523.5 115.938 519.5 117.063 515.75 118.938 512.313 121.375 509.375 124.313 506.938 127.75 505.063 131.5 503.938 135.5 503.5 139.563 503.938 143.313 505.063 146.688 506.938 149.625 509.375 152.063 512.313 153.938 515.75 155.125 519.5 155.5 523.5 155.125 527.563 153.938 531.313 152.063 534.688 149.625 537.625 146.688 540.063 143.313 541.938 139.563 543.125 135.5 543.5 131.5 543.125 127.75 541.938 124.313 540.063 121.375 537.625 118.938 534.688 117.063 531.313 115.938 527.563ZM116.922 527.364 117.989 530.922 119.767 534.121 122.085 536.915 124.877 539.231 128.144 541.013 131.7 542.139 135.501 542.496 139.363 542.139 142.915 541.015 146.121 539.234 148.915 536.915 151.234 534.121 153.015 530.915 154.139 527.363 154.496 523.501 154.139 519.7 153.013 516.144 151.231 512.877 148.915 510.085 146.121 507.767 142.922 505.989 139.364 504.922 135.501 504.506 131.7 504.922 128.137 505.99 124.877 507.769 122.085 510.085 119.769 512.877 117.99 516.137 116.922 519.7 116.506 523.501Z" fill="#FFFFFF"/></g><text font-family="Segoe UI,Segoe UI_MSFontService,sans-serif" font-weight="400" font-size="19" transform="translate(63.8334 320)">​<tspan font-family="Arial,Arial_MSFontService,sans-serif" x="0" y="0">1.5</tspan><tspan x="609.667" y="270">​</tspan><tspan font-family="Arial,Arial_MSFontService,sans-serif" font-weight="700" x="609.667" y="270">9</tspan><tspan x="138.167" y="270">​</tspan><tspan font-family="Arial,Arial_MSFontService,sans-serif" font-weight="700" x="138.167" y="270">1</tspan><tspan x="0" y="253">​</tspan><tspan font-family="Arial,Arial_MSFontService,sans-serif" x="0" y="253">0.3</tspan><tspan font-family="Arial,Arial_MSFontService,sans-serif" font-weight="700" x="33" y="270">0</tspan><tspan x="1025.5" y="270">​</tspan><tspan font-family="Arial,Arial_MSFontService,sans-serif" font-weight="700" x="1025.5" y="270">13</tspan><tspan x="815.513" y="270">​</tspan><tspan font-family="Arial,Arial_MSFontService,sans-serif" font-weight="700" x="815.513" y="270">11</tspan><tspan font-family="Arial,Arial_MSFontService,sans-serif" x="0" y="63">1.2</tspan><tspan x="1131.83" y="270">​</tspan><tspan font-family="Arial,Arial_MSFontService,sans-serif" font-weight="700" x="1131.83" y="270">27</tspan><tspan x="399.333" y="270">​</tspan><tspan font-family="Arial,Arial_MSFontService,sans-serif" font-weight="700" x="399.333" y="270">7</tspan><tspan x="920.167" y="270">​</tspan><tspan font-family="Arial,Arial_MSFontService,sans-serif" font-weight="700" x="920.167" y="270">12</tspan><tspan x="709.833" y="270">​</tspan><tspan font-family="Arial,Arial_MSFontService,sans-serif" font-weight="700" x="709.833" y="270">10</tspan><tspan x="504.5" y="270">​</tspan><tspan font-family="Arial,Arial_MSFontService,sans-serif" font-weight="700" x="504.5" y="270">8</tspan><tspan x="0" y="126">​</tspan><tspan font-family="Arial,Arial_MSFontService,sans-serif" x="0" y="126">0.9</tspan><tspan x="0" y="-41">​</tspan><tspan font-family="Arial,Arial_MSFontService,sans-serif" x="0" y="-41">1.8</tspan><tspan x="294" y="270">​</tspan><tspan font-family="Arial,Arial_MSFontService,sans-serif" font-weight="700" x="294" y="270">6</tspan><tspan x="0" y="-105">​</tspan><tspan font-family="Arial,Arial_MSFontService,sans-serif" x="0" y="-105">2.1</tspan><tspan x="0" y="-160">​</tspan><tspan font-family="Arial,Arial_MSFontService,sans-serif" x="0" y="-160">3.3</tspan></text><path d="M94 180.098 110 176 110 181.902 94 186Z" fill="#FFFFFF" fill-rule="evenodd"/><path d="M94 281.098 110 277 110 282.902 94 287Z" fill="#FFFFFF" fill-rule="evenodd"/><path d="M94.5001 287.5 110.5 283.5" stroke="#000000" stroke-miterlimit="8" fill="none" fill-rule="evenodd"/><path d="M94.5001 186.5 110.5 182.5" stroke="#000000" stroke-miterlimit="8" fill="none" fill-rule="evenodd"/><path d="M94.5001 180.5 110.5 176.5" stroke="#000000" stroke-miterlimit="8" fill="none" fill-rule="evenodd"/><path d="M94.5001 281.5 110.5 277.5" stroke="#000000" stroke-miterlimit="8" fill="none" fill-rule="evenodd"/><path d="M1137 558 1132.9 574 1127 574 1131.1 558Z" fill="#FFFFFF" fill-rule="evenodd"/><path d="M258 558 253.902 574 248 574 252.098 558Z" fill="#FFFFFF" fill-rule="evenodd"/><path d="M1131.5 558.5 1127.5 574.5" stroke="#000000" stroke-miterlimit="8" fill="none" fill-rule="evenodd"/><path d="M258.5 558.5 254.5 574.5" stroke="#000000" stroke-miterlimit="8" fill="none" fill-rule="evenodd"/><path d="M252.5 558.5 248.5 574.5" stroke="#000000" stroke-miterlimit="8" fill="none" fill-rule="evenodd"/><path d="M1137.5 558.5 1133.5 574.5" stroke="#000000" stroke-miterlimit="8" fill="none" fill-rule="evenodd"/><text fill="#FFFFFF" font-family="Arial,Arial_MSFontService,sans-serif" font-weight="400" font-size="19" transform="translate(1117.33 383)">B<tspan x="-550.5" y="-202">D</tspan><tspan fill="#000000" font-weight="700" x="-1053.5" y="-283">Investment needs</tspan><tspan fill="#000000" x="-1053.5" y="-260">New to current visitor ratio</tspan><tspan fill="#000000" font-weight="700" x="-92.1666" y="244">Return on investment</tspan><tspan fill="#000000" x="-119.167" y="267">Income to investment ratio</tspan><tspan x="-225.333" y="0">C</tspan><tspan x="-952.613" y="128">I</tspan><tspan x="-431.946" y="43">J</tspan><tspan x="-655.167" y="-189">E</tspan><tspan x="-770.833" y="42">F</tspan><tspan x="16.3333" y="84">G</tspan><tspan x="-988.833" y="148">H</tspan><tspan x="-600.333" y="0">A</tspan><tspan fill="#000000" font-family="Segoe UI,Segoe UI_MSFontService,sans-serif" x="-349.961" y="-173">​</tspan><tspan fill="#000000" x="-349.961" y="-173">Some </tspan><tspan fill="#000000" font-weight="700" x="-296.128" y="-173">emergent </tspan><tspan fill="#000000" font-weight="700" x="-349.961" y="-150">signs </tspan><tspan fill="#000000" x="-296.294" y="-150">of over</tspan><tspan fill="#000000" x="-239.461" y="-150">-</tspan><tspan fill="#000000" x="-349.961" y="-128">visitation</tspan></text><path d="M761.5 191.5 761.5 259.356" stroke="#7F7F7F" stroke-width="0.666667" stroke-miterlimit="8" fill="none" fill-rule="evenodd"/><path d="M697.167 382.5 697.167 230.167 761.833 230.167 761.833 230.833 697.5 230.833 697.833 230.5 697.833 382.5ZM701.5 382.5C701.5 384.709 699.709 386.5 697.5 386.5 695.291 386.5 693.5 384.709 693.5 382.5 693.5 380.291 695.291 378.5 697.5 378.5 699.709 378.5 701.5 380.291 701.5 382.5Z" fill="#7F7F7F"/></g></svg>